<svg width="14" height="16" viewBox="0 0 14 16" fill="none" xmlns="http://www.w3.org/2000/svg">
    <path d="M11.4715 8.45017C11.4639 7.1547 12.0508 6.17835 13.2361 5.45844C12.5732 4.50868 11.5702 3.98632 10.2482 3.88564C8.9964 3.78687 7.62685 4.61506 7.12538 4.61506C6.59542 4.61506 5.38353 3.91984 4.42998 3.91984C2.46209 3.95023 0.370728 5.48883 0.370728 8.61922C0.370728 9.54428 0.539784 10.4997 0.877897 11.4837C1.32998 12.7792 2.95976 15.9532 4.65982 15.9019C5.54879 15.881 6.17753 15.2713 7.33433 15.2713C8.45694 15.2713 9.03819 15.9019 10.0297 15.9019C11.745 15.8772 13.219 12.9919 13.6483 11.6926C11.348 10.608 11.4715 8.51665 11.4715 8.45017ZM9.47508 2.65666C10.4381 1.51316 10.3508 0.472226 10.3223 0.0980225C9.47128 0.14741 8.48733 0.677373 7.92698 1.3289C7.30964 2.02792 6.94683 2.8922 7.02471 3.86665C7.94407 3.93693 8.78366 3.46395 9.47508 2.65666Z" fill="white"/>
</svg>
