<svg width="20" height="20" viewBox="0 0 20 20" fill="none" xmlns="http://www.w3.org/2000/svg">
    <g clip-path="url(#clip0_32_4602)">
        <path d="M14.8268 6.0101C14.4565 4.41784 13.514 3.01714 12.1786 2.07425C10.8431 1.13137 9.20778 0.712031 7.58339 0.895947C5.95901 1.07986 4.45882 1.85421 3.36799 3.0718C2.27716 4.28939 1.67173 5.86535 1.66678 7.5001C1.66606 8.56543 1.92339 9.61508 2.41678 10.5593C1.51772 11.041 0.805443 11.8095 0.393126 12.7424C-0.0191916 13.6754 -0.107903 14.7194 0.141086 15.7085C0.390075 16.6977 0.962482 17.5753 1.76736 18.2019C2.57224 18.8284 3.56343 19.168 4.58344 19.1668H13.3334C14.966 19.1592 16.5391 18.5528 17.7543 17.4626C18.9696 16.3724 19.7425 14.8742 19.9266 13.252C20.1108 11.6299 19.6932 9.99652 18.7532 8.6617C17.8132 7.32687 16.4161 6.38338 14.8268 6.0101ZM13.3334 17.5001H4.58344C3.8738 17.5022 3.18785 17.2449 2.65471 16.7765C2.12157 16.3081 1.77801 15.6611 1.68871 14.9571C1.5994 14.253 1.7705 13.5407 2.16981 12.954C2.56911 12.3674 3.16908 11.9469 3.85678 11.7718C3.98904 11.7377 4.1109 11.6717 4.21165 11.5795C4.3124 11.4873 4.38894 11.3717 4.43454 11.243C4.48014 11.1143 4.4934 10.9763 4.47315 10.8412C4.45291 10.7062 4.39978 10.5781 4.31844 10.4684C3.67773 9.61155 3.33212 8.57003 3.33344 7.5001C3.34295 6.23842 3.8291 5.02698 4.69439 4.10873C5.55969 3.19048 6.74015 2.63331 7.99904 2.54896C9.25794 2.46461 10.5022 2.85932 11.4822 3.65393C12.4623 4.44854 13.1057 5.5843 13.2834 6.83343C13.3074 7.01481 13.3904 7.18326 13.5196 7.31278C13.6489 7.4423 13.8171 7.5257 13.9984 7.5501C15.2475 7.7278 16.3831 8.37108 17.1777 9.35097C17.9724 10.3309 18.3672 11.5749 18.2831 12.8337C18.1989 14.0925 17.6421 15.2729 16.7241 16.1383C15.8062 17.0038 14.595 17.4902 13.3334 17.5001Z" fill="#C1C1CD"/>
    </g>
    <defs>
        <clipPath id="clip0_32_4602">
            <rect width="20" height="20" fill="white"/>
        </clipPath>
    </defs>
</svg>
