<svg width="20" height="20" viewBox="0 0 20 20" fill="none" xmlns="http://www.w3.org/2000/svg">
    <g clip-path="url(#clip0_32_4622)">
        <path d="M15.8333 16.667H4.16667C3.062 16.6656 2.00296 16.2262 1.22185 15.4451C0.440735 14.664 0.00132321 13.6049 0 12.5003L0 7.50029C0.00132321 6.39562 0.440735 5.33658 1.22185 4.55547C2.00296 3.77435 3.062 3.33494 4.16667 3.33362H15.8333C16.938 3.33494 17.997 3.77435 18.7782 4.55547C19.5593 5.33658 19.9987 6.39562 20 7.50029V12.5003C19.9987 13.6049 19.5593 14.664 18.7782 15.4451C17.997 16.2262 16.938 16.6656 15.8333 16.667ZM4.16667 5.00028C3.50363 5.00028 2.86774 5.26368 2.3989 5.73252C1.93006 6.20136 1.66667 6.83724 1.66667 7.50029V12.5003C1.66667 13.1633 1.93006 13.7992 2.3989 14.2681C2.86774 14.7369 3.50363 15.0003 4.16667 15.0003H15.8333C16.4964 15.0003 17.1323 14.7369 17.6011 14.2681C18.0699 13.7992 18.3333 13.1633 18.3333 12.5003V7.50029C18.3333 6.83724 18.0699 6.20136 17.6011 5.73252C17.1323 5.26368 16.4964 5.00028 15.8333 5.00028H4.16667ZM10 13.3336C9.34073 13.3336 8.69626 13.1381 8.1481 12.7719C7.59994 12.4056 7.17269 11.885 6.9204 11.2759C6.66811 10.6668 6.6021 9.99659 6.73072 9.34998C6.85933 8.70338 7.1768 8.10944 7.64298 7.64326C8.10915 7.17709 8.7031 6.85962 9.3497 6.731C9.9963 6.60238 10.6665 6.66839 11.2756 6.92069C11.8847 7.17298 12.4053 7.60022 12.7716 8.14838C13.1378 8.69655 13.3333 9.34101 13.3333 10.0003C13.3333 10.8843 12.9821 11.7322 12.357 12.3573C11.7319 12.9824 10.8841 13.3336 10 13.3336ZM10 8.33362C9.67036 8.33362 9.34813 8.43137 9.07405 8.6145C8.79997 8.79764 8.58635 9.05794 8.4602 9.36248C8.33405 9.66702 8.30105 10.0021 8.36536 10.3254C8.42967 10.6487 8.5884 10.9457 8.82149 11.1788C9.05458 11.4119 9.35155 11.5706 9.67485 11.6349C9.99815 11.6992 10.3333 11.6662 10.6378 11.5401C10.9423 11.4139 11.2026 11.2003 11.3858 10.9262C11.5689 10.6522 11.6667 10.3299 11.6667 10.0003C11.6667 9.55826 11.4911 9.13433 11.1785 8.82177C10.8659 8.50921 10.442 8.33362 10 8.33362ZM4.16667 6.66695C4.00185 6.66695 3.84073 6.71583 3.70369 6.80739C3.56665 6.89896 3.45984 7.02911 3.39677 7.18138C3.33369 7.33365 3.31719 7.50121 3.34935 7.66286C3.3815 7.82451 3.46087 7.973 3.57741 8.08954C3.69395 8.20608 3.84244 8.28545 4.00409 8.31761C4.16574 8.34976 4.3333 8.33326 4.48557 8.27018C4.63784 8.20711 4.76799 8.1003 4.85956 7.96326C4.95113 7.82622 5 7.6651 5 7.50029C5 7.27927 4.9122 7.06731 4.75592 6.91103C4.59964 6.75475 4.38768 6.66695 4.16667 6.66695ZM15 7.50029C15 7.6651 15.0489 7.82622 15.1404 7.96326C15.232 8.1003 15.3622 8.20711 15.5144 8.27018C15.6667 8.33326 15.8343 8.34976 15.9959 8.31761C16.1576 8.28545 16.306 8.20608 16.4226 8.08954C16.5391 7.973 16.6185 7.82451 16.6507 7.66286C16.6828 7.50121 16.6663 7.33365 16.6032 7.18138C16.5402 7.02911 16.4333 6.89896 16.2963 6.80739C16.1593 6.71583 15.9982 6.66695 15.8333 6.66695C15.6123 6.66695 15.4004 6.75475 15.2441 6.91103C15.0878 7.06731 15 7.27927 15 7.50029ZM4.16667 11.667C4.00185 11.667 3.84073 11.7158 3.70369 11.8074C3.56665 11.899 3.45984 12.0291 3.39677 12.1814C3.33369 12.3337 3.31719 12.5012 3.34935 12.6629C3.3815 12.8245 3.46087 12.973 3.57741 13.0895C3.69395 13.2061 3.84244 13.2855 4.00409 13.3176C4.16574 13.3498 4.3333 13.3333 4.48557 13.2702C4.63784 13.2071 4.76799 13.1003 4.85956 12.9633C4.95113 12.8262 5 12.6651 5 12.5003C5 12.2793 4.9122 12.0673 4.75592 11.911C4.59964 11.7547 4.38768 11.667 4.16667 11.667ZM15 12.5003C15 12.6651 15.0489 12.8262 15.1404 12.9633C15.232 13.1003 15.3622 13.2071 15.5144 13.2702C15.6667 13.3333 15.8343 13.3498 15.9959 13.3176C16.1576 13.2855 16.306 13.2061 16.4226 13.0895C16.5391 12.973 16.6185 12.8245 16.6507 12.6629C16.6828 12.5012 16.6663 12.3337 16.6032 12.1814C16.5402 12.0291 16.4333 11.899 16.2963 11.8074C16.1593 11.7158 15.9982 11.667 15.8333 11.667C15.6123 11.667 15.4004 11.7547 15.2441 11.911C15.0878 12.0673 15 12.2793 15 12.5003Z" fill="#C1C1CD"/>
    </g>
    <defs>
        <clipPath id="clip0_32_4622">
            <rect width="20" height="20" fill="white"/>
        </clipPath>
    </defs>
</svg>
