<svg width="24" height="24" viewBox="0 0 24 24" fill="none" xmlns="http://www.w3.org/2000/svg">
    <g clip-path="url(#clip0_40_1970)">
        <path d="M24 6.83012C24.0008 6.96172 23.9756 7.09218 23.9258 7.21402C23.876 7.33586 23.8027 7.44668 23.71 7.54012L15.54 15.7101C15.0756 16.1757 14.5238 16.5452 13.9164 16.7972C13.3089 17.0493 12.6577 17.1791 12 17.1791C11.3424 17.1791 10.6912 17.0493 10.0837 16.7972C9.47626 16.5452 8.92451 16.1757 8.46005 15.7101L0.290063 7.54012C0.196824 7.44688 0.122863 7.33619 0.0724031 7.21437C0.0219428 7.09254 -0.00402877 6.96198 -0.00402877 6.83012C-0.00402878 6.69826 0.0219428 6.56769 0.072403 6.44587C0.122863 6.32405 0.196824 6.21336 0.290062 6.12012C0.383301 6.02688 0.493991 5.95292 0.615813 5.90246C0.737635 5.852 0.868203 5.82602 1.00006 5.82602C1.13192 5.82602 1.26249 5.852 1.38431 5.90246C1.50613 5.95292 1.61682 6.02688 1.71006 6.12012L9.88005 14.2901C10.4426 14.8519 11.205 15.1675 12 15.1675C12.7951 15.1675 13.5575 14.8519 14.12 14.2901L22.29 6.12012C22.383 6.02639 22.4936 5.95199 22.6155 5.90122C22.7373 5.85045 22.868 5.82432 23 5.82432C23.132 5.82432 23.2628 5.85045 23.3846 5.90122C23.5065 5.95199 23.6171 6.02639 23.71 6.12012C23.8027 6.21356 23.876 6.32437 23.9258 6.44621C23.9756 6.56805 24.0008 6.69851 24 6.83012Z" fill="#A2A2B5"/>
    </g>
    <defs>
        <clipPath id="clip0_40_1970">
            <rect width="24" height="24" fill="white" transform="translate(0 24) rotate(-90)"/>
        </clipPath>
    </defs>
</svg>
