<svg width="17" height="16" viewBox="0 0 17 16" fill="none" xmlns="http://www.w3.org/2000/svg">
    <path d="M14.8041 6.76938C14.8861 7.20871 14.9307 7.66805 14.9307 8.14738C14.9307 11.8967 12.4214 14.5627 8.63139 14.5627C7.7695 14.563 6.916 14.3934 6.11966 14.0637C5.32332 13.734 4.59975 13.2506 3.9903 12.6411C3.38085 12.0317 2.89746 11.3081 2.56774 10.5118C2.23803 9.71544 2.06846 8.86194 2.06873 8.00005C2.06846 7.13815 2.23803 6.28465 2.56774 5.48831C2.89746 4.69197 3.38085 3.96841 3.9903 3.35895C4.59975 2.7495 5.32332 2.26611 6.11966 1.9364C6.916 1.60668 7.7695 1.43712 8.63139 1.43738C10.4034 1.43738 11.8841 2.08938 13.0201 3.14805L11.1701 4.99804V4.99338C10.4814 4.33738 9.60739 4.00071 8.63139 4.00071C6.46606 4.00071 4.70606 5.83005 4.70606 7.99605C4.70606 10.1614 6.46606 11.9947 8.63139 11.9947C10.5961 11.9947 11.9334 10.8714 12.2081 9.32871H8.63139V6.76938H14.8047H14.8041Z" fill="#0E0E12"/>
</svg>
