<svg viewBox="0 0 329 55" fill="none" xmlns="http://www.w3.org/2000/svg" overflow="auto">
    <g filter="url(#filter0_b_511_196)">
        <mask id="path-1-inside-1_511_196" fill="white">
            <path fill-rule="evenodd" clip-rule="evenodd" d="M122.713 0C128.165 0 132 5.5479 132 11V11V12C132 29.6731 146.327 44 164 44C181.673 44 196 29.6731 196 12V11V11C196 5.5479 199.835 0 205.287 0H301.5C312.26 0 317.64 0 321.56 2.48234C323.559 3.74805 325.252 5.44126 326.518 7.44004C329 11.3601 329 16.7401 329 27.5V27.5C329 38.2599 329 43.6399 326.518 47.56C325.252 49.5587 323.559 51.2519 321.56 52.5177C317.64 55 312.26 55 301.5 55H27.5C16.7401 55 11.3601 55 7.44004 52.5177C5.44126 51.2519 3.74805 49.5587 2.48234 47.56C0 43.6399 0 38.2599 0 27.5V27.5C0 16.7401 0 11.3601 2.48234 7.44004C3.74805 5.44126 5.44126 3.74805 7.44004 2.48234C11.3601 0 16.7401 0 27.5 0H122.713Z"/>
        </mask>
        <path fill-rule="evenodd" clip-rule="evenodd" d="M122.713 0C128.165 0 132 5.5479 132 11V11V12C132 29.6731 146.327 44 164 44C181.673 44 196 29.6731 196 12V11V11C196 5.5479 199.835 0 205.287 0H301.5C312.26 0 317.64 0 321.56 2.48234C323.559 3.74805 325.252 5.44126 326.518 7.44004C329 11.3601 329 16.7401 329 27.5V27.5C329 38.2599 329 43.6399 326.518 47.56C325.252 49.5587 323.559 51.2519 321.56 52.5177C317.64 55 312.26 55 301.5 55H27.5C16.7401 55 11.3601 55 7.44004 52.5177C5.44126 51.2519 3.74805 49.5587 2.48234 47.56C0 43.6399 0 38.2599 0 27.5V27.5C0 16.7401 0 11.3601 2.48234 7.44004C3.74805 5.44126 5.44126 3.74805 7.44004 2.48234C11.3601 0 16.7401 0 27.5 0H122.713Z" fill="#4E4E61" fill-opacity="0.75"/>
        <path d="M7.44004 52.5177L7.97504 51.6728L7.44004 52.5177ZM2.48234 47.56L1.63749 48.095L2.48234 47.56ZM326.518 47.56L327.363 48.095L326.518 47.56ZM321.56 52.5177L322.095 53.3625L321.56 52.5177ZM321.56 2.48234L322.095 1.63749L321.56 2.48234ZM326.518 7.44004L325.673 7.97504L326.518 7.44004ZM133 12V11H131V12H133ZM164 43C146.879 43 133 29.1208 133 12H131C131 30.2254 145.775 45 164 45V43ZM195 12C195 29.1208 181.121 43 164 43V45C182.225 45 197 30.2254 197 12H195ZM195 11V12H197V11H195ZM205.287 1H301.5V-1H205.287V1ZM301.5 54H27.5V56H301.5V54ZM27.5 1H122.713V-1H27.5V1ZM1 27.5C1 22.1001 1.00111 18.1223 1.30557 15.0022C1.6085 11.8976 2.20425 9.74836 3.3272 7.97504L1.63749 6.90504C0.278089 9.05177 -0.367332 11.5526 -0.68498 14.8079C-1.00111 18.0478 -1 22.1399 -1 27.5H1ZM27.5 -1C22.1399 -1 18.0478 -1.00111 14.8079 -0.68498C11.5526 -0.367332 9.05177 0.278089 6.90504 1.63749L7.97504 3.3272C9.74836 2.20425 11.8976 1.6085 15.0022 1.30557C18.1223 1.00111 22.1001 1 27.5 1V-1ZM3.3272 7.97504C4.5138 6.10119 6.10119 4.5138 7.97504 3.3272L6.90504 1.63749C4.78134 2.98231 2.98231 4.78134 1.63749 6.90504L3.3272 7.97504ZM27.5 54C22.1001 54 18.1223 53.9989 15.0022 53.6944C11.8976 53.3915 9.74836 52.7957 7.97504 51.6728L6.90504 53.3625C9.05177 54.7219 11.5526 55.3673 14.8079 55.685C18.0478 56.0011 22.1399 56 27.5 56V54ZM-1 27.5C-1 32.8601 -1.00111 36.9522 -0.68498 40.1921C-0.367332 43.4474 0.278089 45.9482 1.63749 48.095L3.3272 47.025C2.20425 45.2516 1.6085 43.1024 1.30557 39.9978C1.00111 36.8777 1 32.8999 1 27.5H-1ZM7.97504 51.6728C6.10119 50.4862 4.5138 48.8988 3.3272 47.025L1.63749 48.095C2.98231 50.2187 4.78134 52.0177 6.90504 53.3625L7.97504 51.6728ZM328 27.5C328 32.8999 327.999 36.8777 327.694 39.9978C327.391 43.1024 326.796 45.2516 325.673 47.025L327.363 48.095C328.722 45.9482 329.367 43.4474 329.685 40.1921C330.001 36.9522 330 32.8601 330 27.5H328ZM301.5 56C306.86 56 310.952 56.0011 314.192 55.685C317.447 55.3673 319.948 54.7219 322.095 53.3625L321.025 51.6728C319.252 52.7957 317.102 53.3915 313.998 53.6944C310.878 53.9989 306.9 54 301.5 54V56ZM325.673 47.025C324.486 48.8988 322.899 50.4862 321.025 51.6728L322.095 53.3625C324.219 52.0177 326.018 50.2187 327.363 48.095L325.673 47.025ZM301.5 1C306.9 1 310.878 1.00111 313.998 1.30557C317.102 1.6085 319.252 2.20425 321.025 3.3272L322.095 1.63749C319.948 0.278088 317.447 -0.367332 314.192 -0.68498C310.952 -1.00111 306.86 -1 301.5 -1V1ZM330 27.5C330 22.1399 330.001 18.0478 329.685 14.8079C329.367 11.5526 328.722 9.05177 327.363 6.90504L325.673 7.97504C326.796 9.74836 327.391 11.8976 327.694 15.0022C327.999 18.1223 328 22.1001 328 27.5H330ZM321.025 3.3272C322.899 4.5138 324.486 6.10119 325.673 7.97504L327.363 6.90504C326.018 4.78134 324.219 2.98231 322.095 1.63749L321.025 3.3272ZM197 11C197 8.49602 197.885 5.96576 199.382 4.07677C200.874 2.19543 202.927 1 205.287 1V-1C202.195 -1 199.604 0.578522 197.815 2.83415C196.033 5.08214 195 8.05188 195 11H197ZM133 11C133 8.05188 131.967 5.08214 130.185 2.83415C128.396 0.578522 125.805 -1 122.713 -1V1C125.073 1 127.126 2.19543 128.618 4.07677C130.115 5.96576 131 8.49602 131 11H133Z" fill="url(#paint0_linear_511_196)" fill-opacity="0.15" mask="url(#path-1-inside-1_511_196)"/>
    </g>
    <defs>
        <filter id="filter0_b_511_196" x="-10" y="-10" width="349" height="75" filterUnits="userSpaceOnUse" color-interpolation-filters="sRGB">
            <feFlood flood-opacity="0" result="BackgroundImageFix"/>
            <feGaussianBlur in="BackgroundImage" stdDeviation="5"/>
            <feComposite in2="SourceAlpha" operator="in" result="effect1_backgroundBlur_511_196"/>
            <feBlend mode="normal" in="SourceGraphic" in2="effect1_backgroundBlur_511_196" result="shape"/>
        </filter>
        <linearGradient id="paint0_linear_511_196" x1="-15" y1="2.79379e-07" x2="19.0973" y2="103.092" gradientUnits="userSpaceOnUse">
            <stop stop-color="#CFCFFC"/>
            <stop offset="1" stop-color="#CFCFFC" stop-opacity="0"/>
        </linearGradient>
    </defs>
</svg>