<svg width="12" height="12" viewBox="0 0 12 12" fill="none" xmlns="http://www.w3.org/2000/svg">
    <path d="M9.35493 4.10499C9.30845 4.05813 9.25315 4.02093 9.19222 3.99555C9.13129 3.97016 9.06594 3.95709 8.99993 3.95709C8.93393 3.95709 8.86857 3.97016 8.80764 3.99555C8.74671 4.02093 8.69141 4.05813 8.64493 4.10499L6.35493 6.39499C6.30845 6.44185 6.25315 6.47905 6.19222 6.50443C6.13129 6.52982 6.06594 6.54289 5.99993 6.54289C5.93393 6.54289 5.86857 6.52982 5.80764 6.50443C5.74671 6.47905 5.69141 6.44185 5.64493 6.39499L3.35493 4.10499C3.30845 4.05813 3.25315 4.02093 3.19222 3.99555C3.13129 3.97016 3.06594 3.95709 2.99993 3.95709C2.93392 3.95709 2.86857 3.97016 2.80764 3.99555C2.74671 4.02093 2.69141 4.05813 2.64493 4.10499C2.55181 4.19867 2.49953 4.3254 2.49953 4.45749C2.49953 4.58958 2.55181 4.71631 2.64493 4.80999L4.93993 7.10499C5.22118 7.38589 5.60243 7.54366 5.99993 7.54366C6.39743 7.54366 6.77868 7.38589 7.05993 7.10499L9.35493 4.80999C9.44806 4.71631 9.50033 4.58958 9.50033 4.45749C9.50033 4.3254 9.44806 4.19867 9.35493 4.10499V4.10499Z" fill="white"/>
</svg>
