<svg width="13" height="13" viewBox="0 0 13 13" fill="none" xmlns="http://www.w3.org/2000/svg">
    <path d="M2.66902 7.91017C2.71523 7.95731 2.77031 7.99483 2.83109 8.02057C2.89187 8.04631 2.95715 8.05976 3.02315 8.06015C3.08916 8.06053 3.15458 8.04784 3.21566 8.02282C3.27674 7.99779 3.33226 7.96092 3.37901 7.91432L5.68236 5.63775C5.72911 5.59116 5.78463 5.55429 5.84571 5.52926C5.90678 5.50423 5.97221 5.49155 6.03822 5.49193C6.10422 5.49232 6.1695 5.50577 6.23028 5.53151C6.29106 5.55725 6.34614 5.59477 6.39235 5.6419L8.66892 7.94525C8.71513 7.99238 8.77021 8.0299 8.83099 8.05564C8.89177 8.08138 8.95704 8.09483 9.02305 8.09522C9.08905 8.09561 9.15448 8.08292 9.21556 8.05789C9.27664 8.03286 9.33215 7.99599 9.37891 7.9494C9.47258 7.85626 9.52559 7.72985 9.52636 7.59775C9.52713 7.46566 9.47561 7.33864 9.38303 7.24441L7.10148 4.93604C6.82188 4.6535 6.44156 4.49349 6.04407 4.49117C5.64657 4.48885 5.26441 4.6444 4.98152 4.92365L2.67314 7.20519C2.57947 7.29832 2.52646 7.42474 2.52569 7.55683C2.52492 7.68892 2.57645 7.81595 2.66902 7.91017Z" fill="white"/>
</svg>
