<svg width="40" height="40" viewBox="0 0 40 40" fill="none" xmlns="http://www.w3.org/2000/svg">
    <rect width="40" height="40" rx="12" fill="#1ED760"/>
    <path d="M19.4995 9.0379C13.1678 9.0379 8.03467 14.1709 8.03467 20.5026C8.03467 26.8346 13.1678 31.9671 19.4995 31.9671C25.8319 31.9671 30.9644 26.8346 30.9644 20.5026C30.9644 14.1713 25.8319 9.03845 19.4994 9.03845L19.4995 9.0379V9.0379ZM24.7572 25.5733C24.5518 25.91 24.111 26.0168 23.7742 25.8101C21.0824 24.1659 17.6937 23.7935 13.7029 24.7053C13.3184 24.7929 12.935 24.5519 12.8474 24.1672C12.7594 23.7825 12.9994 23.3992 13.3849 23.3116C17.7522 22.3134 21.4983 22.7434 24.5203 24.5903C24.8571 24.797 24.9639 25.2365 24.7572 25.5733V25.5733ZM26.1605 22.4511C25.9017 22.8721 25.3513 23.0049 24.9311 22.7462C21.8493 20.8515 17.1517 20.303 13.5066 21.4094C13.0339 21.5522 12.5346 21.2858 12.3911 20.8139C12.2487 20.3412 12.5153 19.8428 12.9872 19.6991C17.1509 18.4357 22.3271 19.0477 25.8661 21.2224C26.2864 21.4812 26.4192 22.0315 26.1605 22.4513V22.4511ZM26.2809 19.2005C22.5859 17.0058 16.4895 16.804 12.9616 17.8747C12.3951 18.0465 11.796 17.7267 11.6243 17.1602C11.4526 16.5934 11.7722 15.9947 12.3391 15.8225C16.3889 14.5931 23.1212 14.8306 27.3753 17.3561C27.886 17.6585 28.053 18.3166 27.7505 18.8255C27.4493 19.3351 26.7894 19.503 26.2815 19.2005H26.2809Z" fill="white"/>
</svg>
